<?xml version="1.0" encoding="UTF-8" standalone="no"?>
<!DOCTYPE svg PUBLIC "-//W3C//DTD SVG 1.1//EN" "http://www.w3.org/Graphics/SVG/1.1/DTD/svg11.dtd">
<svg width="100%" height="100%" viewBox="0 0 82 58" version="1.1" xmlns="http://www.w3.org/2000/svg" xmlns:xlink="http://www.w3.org/1999/xlink" xml:space="preserve" xmlns:serif="http://www.serif.com/" style="fill-rule:evenodd;clip-rule:evenodd;stroke-linejoin:round;stroke-miterlimit:2;">
    <g transform="matrix(1,0,0,1,-147,-253)">
        <g transform="matrix(0.413235,0,0,0.413235,0.828013,132.97)">
            <g transform="matrix(1,0,0,1,196.97,557.792)">
                <path d="M330.556,-128.566L354.2,-152.21L354.2,-238.066L189.7,-238.066L189.7,-128.566L330.556,-128.566ZM204.2,-150.744L204.2,-223.566C204.2,-223.566 339.7,-223.566 339.7,-223.566L339.7,-158.216L324.55,-143.066L317.453,-143.066C317.315,-143.385 317.142,-143.692 316.935,-143.981C307.929,-156.608 290.507,-181.034 282.607,-192.109C281.669,-193.424 280.152,-194.205 278.536,-194.205C276.92,-194.205 275.404,-193.424 274.466,-192.109L250.639,-158.704L234.203,-183.905C233.28,-185.321 231.705,-186.174 230.015,-186.174C228.325,-186.174 226.75,-185.321 225.827,-183.905L204.2,-150.744ZM321.731,-252.565L171.731,-252.565L171.731,-157.565L157.231,-157.565L157.231,-267.065L321.731,-267.065L321.731,-252.565ZM317.865,-210.386C323.4,-210.386 327.894,-205.892 327.894,-200.357C327.894,-194.821 323.4,-190.327 317.865,-190.327C312.33,-190.327 307.836,-194.821 307.836,-200.357C307.836,-205.892 312.33,-210.386 317.865,-210.386Z" style="fill:rgb(22,163,74);"/>
            </g>
        </g>
    </g>
</svg>
